<svg width="22" height="24" viewBox="0 0 22 24" fill="none" xmlns="http://www.w3.org/2000/svg">
<path d="M16 7C16 7.55078 15.5508 8 15 8H7C6.44922 8 6 7.55078 6 7C6 6.44922 6.44922 6 7 6H15C15.5508 6 16 6.44922 16 7ZM22 5V19C21.9961 21.7617 19.7617 23.9961 17 24H5C2.23828 23.9961 0.003906 21.7617 0 19V5C0.003906 2.23828 2.23828 0.00390625 5 0H17C19.7617 0.00390625 21.9961 2.23828 22 5ZM6 18C6 17.4492 5.55078 17 5 17C4.44922 17 4 17.4492 4 18C4 18.5508 4.44922 19 5 19C5.55078 19 6 18.5508 6 18ZM6 14C6 13.4492 5.55078 13 5 13C4.44922 13 4 13.4492 4 14C4 14.5508 4.44922 15 5 15C5.55078 15 6 14.5508 6 14ZM10 18C10 17.4492 9.55078 17 9 17C8.44922 17 8 17.4492 8 18C8 18.5508 8.44922 19 9 19C9.55078 19 10 18.5508 10 18ZM10 14C10 13.4492 9.55078 13 9 13C8.44922 13 8 13.4492 8 14C8 14.5508 8.44922 15 9 15C9.55078 15 10 14.5508 10 14ZM18 18C18 17.4492 17.5508 17 17 17H13C12.4492 17 12 17.4492 12 18C12 18.5508 12.4492 19 13 19H17C17.5508 19 18 18.5508 18 18ZM13 15C13.5508 15 14 14.5508 14 14C14 13.4492 13.5508 13 13 13C12.4492 13 12 13.4492 12 14C12 14.5508 12.4492 15 13 15ZM18 14C18 13.4492 17.5508 13 17 13C16.4492 13 16 13.4492 16 14C16 14.5508 16.4492 15 17 15C17.5508 15 18 14.5508 18 14ZM18 7C18 5.34375 16.6562 4 15 4H7C5.34375 4 4 5.34375 4 7C4 8.65625 5.34375 10 7 10H15C16.6562 10 18 8.65625 18 7Z" fill="white"/>
</svg>
