<?xml version="1.0" encoding="UTF-8"?>
<svg xmlns="http://www.w3.org/2000/svg" xmlns:xlink="http://www.w3.org/1999/xlink" width="22px" height="22px" viewBox="0 0 22 22" version="1.1">
<g id="surface1">
<path style=" stroke:none;fill-rule:nonzero;fill:rgb(100%,100%,100%);fill-opacity:1;" d="M 10.5625 0.0117188 C 10.191406 0.03125 9.890625 0.0585938 9.652344 0.0859375 C 7.941406 0.296875 6.339844 0.890625 4.90625 1.84375 C 3.347656 2.882812 2.074219 4.308594 1.21875 5.972656 C 0.539062 7.292969 0.160156 8.636719 0.03125 10.183594 C 0.00390625 10.515625 0.00390625 11.484375 0.03125 11.816406 C 0.160156 13.363281 0.539062 14.707031 1.21875 16.027344 C 2.265625 18.066406 3.933594 19.734375 5.972656 20.78125 C 7.292969 21.460938 8.636719 21.839844 10.183594 21.96875 C 10.515625 21.996094 11.484375 21.996094 11.816406 21.96875 C 13.363281 21.839844 14.707031 21.460938 16.027344 20.78125 C 18.066406 19.734375 19.734375 18.066406 20.78125 16.027344 C 21.460938 14.707031 21.839844 13.363281 21.96875 11.816406 C 21.996094 11.484375 21.996094 10.515625 21.96875 10.183594 C 21.839844 8.636719 21.460938 7.292969 20.78125 5.972656 C 19.734375 3.933594 18.066406 2.265625 16.027344 1.21875 C 14.734375 0.554688 13.394531 0.171875 11.917969 0.0429688 C 11.636719 0.015625 10.773438 -0.00390625 10.5625 0.0117188 Z M 11.832031 1.347656 C 14.082031 1.542969 16.160156 2.5 17.789062 4.097656 C 19.46875 5.753906 20.464844 7.886719 20.660156 10.269531 C 20.6875 10.601562 20.6875 11.398438 20.660156 11.730469 C 20.464844 14.109375 19.46875 16.246094 17.789062 17.902344 C 16.136719 19.523438 14.058594 20.46875 11.730469 20.660156 C 11.398438 20.6875 10.601562 20.6875 10.269531 20.660156 C 7.890625 20.464844 5.753906 19.46875 4.097656 17.789062 C 2.476562 16.136719 1.53125 14.058594 1.339844 11.730469 C 1.3125 11.398438 1.3125 10.601562 1.339844 10.269531 C 1.535156 7.890625 2.53125 5.753906 4.210938 4.097656 C 5.722656 2.617188 7.628906 1.675781 9.695312 1.402344 C 10.410156 1.308594 11.125 1.289062 11.832031 1.347656 Z M 11.832031 1.347656 "/>
<path style=" stroke:none;fill-rule:nonzero;fill:rgb(100%,100%,100%);fill-opacity:1;" d="M 8.695312 3.542969 C 8.601562 3.570312 7.53125 4.195312 7.464844 4.261719 C 7.320312 4.410156 7.289062 4.617188 7.386719 4.804688 C 7.5 5.027344 9.367188 8.246094 9.414062 8.300781 C 9.511719 8.417969 9.722656 8.480469 9.875 8.441406 C 9.953125 8.421875 11.011719 7.8125 11.101562 7.738281 C 11.226562 7.636719 11.289062 7.410156 11.238281 7.261719 C 11.222656 7.222656 10.761719 6.410156 10.210938 5.457031 C 9.402344 4.054688 9.195312 3.707031 9.132812 3.648438 C 9.015625 3.539062 8.851562 3.5 8.695312 3.542969 Z M 8.695312 3.542969 "/>
<path style=" stroke:none;fill-rule:nonzero;fill:rgb(100%,100%,100%);fill-opacity:1;" d="M 6.773438 5.039062 C 6.402344 5.265625 6.222656 5.398438 6.03125 5.585938 C 5.441406 6.144531 5.285156 6.726562 5.40625 7.898438 C 5.691406 10.675781 7.730469 14.585938 10.097656 16.890625 C 10.714844 17.492188 11.351562 17.976562 11.871094 18.230469 C 12.199219 18.390625 12.441406 18.457031 12.769531 18.472656 C 13.210938 18.492188 13.636719 18.367188 14.277344 18.023438 C 14.472656 17.917969 14.539062 17.875 14.53125 17.859375 C 14.523438 17.835938 12.542969 14.398438 12.484375 14.304688 L 12.460938 14.265625 L 12.390625 14.300781 C 12.273438 14.359375 12.078125 14.417969 11.917969 14.4375 C 11.550781 14.484375 11.117188 14.351562 10.695312 14.066406 C 9.6875 13.382812 8.769531 11.886719 8.523438 10.527344 C 8.386719 9.757812 8.492188 9.136719 8.824219 8.742188 C 8.882812 8.675781 9.074219 8.515625 9.109375 8.503906 C 9.125 8.5 8.734375 7.804688 8.09375 6.703125 C 7.527344 5.714844 7.054688 4.902344 7.046875 4.894531 C 7.042969 4.886719 6.917969 4.953125 6.773438 5.039062 Z M 6.773438 5.039062 "/>
<path style=" stroke:none;fill-rule:nonzero;fill:rgb(100%,100%,100%);fill-opacity:1;" d="M 14.128906 12.839844 C 14.035156 12.851562 14 12.871094 13.390625 13.21875 C 13.125 13.375 12.878906 13.527344 12.84375 13.5625 C 12.71875 13.683594 12.671875 13.875 12.722656 14.027344 C 12.75 14.113281 14.707031 17.507812 14.78125 17.597656 C 14.902344 17.753906 15.144531 17.800781 15.339844 17.703125 C 15.488281 17.632812 16.394531 17.109375 16.464844 17.050781 C 16.5625 16.972656 16.621094 16.84375 16.621094 16.703125 C 16.621094 16.640625 16.613281 16.566406 16.601562 16.539062 C 16.542969 16.402344 14.582031 13.027344 14.527344 12.972656 C 14.421875 12.863281 14.285156 12.816406 14.128906 12.839844 Z M 14.128906 12.839844 "/>
</g>
</svg>
