<?xml version="1.0" encoding="UTF-8"?>
<svg xmlns="http://www.w3.org/2000/svg" xmlns:xlink="http://www.w3.org/1999/xlink" width="92px" height="px" viewBox="0 0 92 92" version="1.1">
<g id="surface1">
<path style=" stroke:none;fill-rule:nonzero;fill:rgb(0.392157%,15.686275%,32.941176%);fill-opacity:1;" d="M 65.765625 71.15625 C 64.773438 71.15625 63.96875 71.960938 63.96875 72.953125 C 63.96875 73.945312 64.773438 74.75 65.765625 74.75 C 66.757812 74.75 67.5625 73.945312 67.5625 72.953125 C 67.5625 71.960938 66.757812 71.15625 65.765625 71.15625 Z M 65.765625 71.15625 "/>
<path style=" stroke:none;fill-rule:nonzero;fill:rgb(0.392157%,15.686275%,32.941176%);fill-opacity:1;" d="M 70.191406 65.34375 L 61.648438 62.5 L 58.582031 56.367188 C 61.34375 53.554688 63.261719 49.835938 63.910156 45.957031 L 64.292969 43.664062 L 67.5625 43.664062 C 70.535156 43.664062 72.953125 41.246094 72.953125 38.273438 L 72.953125 26.953125 C 72.953125 12.089844 60.863281 0 46 0 C 31.101562 0 19.046875 12.054688 19.046875 26.953125 L 19.046875 38.273438 C 19.046875 40.617188 20.550781 42.613281 22.640625 43.355469 L 22.640625 45.460938 C 22.640625 48.433594 25.058594 50.851562 28.03125 50.851562 L 29.609375 50.851562 C 30.386719 52.542969 31.402344 54.113281 32.625 55.519531 C 32.878906 55.8125 33.140625 56.09375 33.414062 56.371094 L 30.351562 62.5 L 21.808594 65.347656 C 11.878906 68.65625 4.671875 79.109375 4.671875 90.203125 C 4.671875 91.195312 5.476562 92 6.46875 92 L 85.53125 92 C 86.523438 92 87.328125 91.195312 87.328125 90.203125 C 87.328125 79.109375 80.121094 68.65625 70.191406 65.34375 Z M 69.359375 38.273438 C 69.359375 39.265625 68.554688 40.070312 67.5625 40.070312 L 64.820312 40.070312 C 65.277344 36.53125 65.582031 32.765625 65.703125 29.058594 C 65.707031 28.953125 65.710938 28.851562 65.714844 28.75 L 69.359375 28.75 Z M 24.4375 40.070312 C 23.445312 40.070312 22.640625 39.265625 22.640625 38.273438 L 22.640625 28.75 L 26.289062 28.75 C 26.292969 28.9375 26.300781 29.125 26.308594 29.316406 L 26.308594 29.335938 C 26.433594 32.941406 26.734375 36.609375 27.179688 40.070312 Z M 28.03125 47.257812 C 27.039062 47.257812 26.234375 46.453125 26.234375 45.460938 L 26.234375 43.664062 L 27.707031 43.664062 L 28.089844 45.957031 C 28.164062 46.394531 28.253906 46.828125 28.355469 47.257812 Z M 26.238281 25.15625 L 22.707031 25.15625 C 23.617188 13.113281 33.667969 3.59375 46 3.59375 C 58.277344 3.59375 68.371094 13.113281 69.289062 25.15625 L 65.761719 25.15625 C 65.632812 15.234375 57.550781 7.1875 47.609375 7.1875 L 44.390625 7.1875 C 34.449219 7.1875 26.367188 15.234375 26.238281 25.15625 Z M 44.390625 10.78125 L 47.609375 10.78125 C 55.660156 10.78125 62.175781 17.367188 62.171875 25.410156 C 62.171875 25.976562 62.167969 26.46875 62.15625 26.914062 L 62.15625 26.933594 L 59.910156 26.613281 C 53.804688 25.738281 48.039062 22.859375 43.675781 18.496094 C 43.339844 18.15625 42.882812 17.96875 42.40625 17.96875 C 37.582031 17.96875 32.960938 20.167969 29.90625 23.882812 C 30.660156 16.566406 36.84375 10.78125 44.390625 10.78125 Z M 32.082031 47.257812 C 31.183594 44.265625 30.152344 35.460938 29.925781 29.820312 L 32.34375 26.59375 C 34.566406 23.632812 38.019531 21.792969 41.695312 21.582031 C 46.53125 26.1875 52.789062 29.226562 59.402344 30.167969 L 62.046875 30.546875 C 61.871094 34.300781 61.507812 38.066406 60.992188 41.53125 C 60.828125 42.648438 60.695312 43.363281 60.367188 45.363281 C 59.414062 51.074219 55.15625 56.234375 49.53125 57.640625 C 47.214844 58.21875 44.789062 58.21875 42.46875 57.640625 C 38.957031 56.761719 35.738281 54.332031 33.660156 50.851562 L 37.324219 50.851562 C 38.066406 52.941406 40.0625 54.445312 42.40625 54.445312 L 46 54.445312 C 48.976562 54.445312 51.390625 52.03125 51.390625 49.054688 C 51.390625 46.082031 48.972656 43.664062 46 43.664062 L 42.40625 43.664062 C 40.011719 43.664062 38.042969 45.210938 37.320312 47.257812 Z M 42.253906 61.277344 C 43.488281 61.535156 44.742188 61.667969 46 61.667969 C 46.984375 61.667969 47.964844 61.585938 48.9375 61.425781 L 45.761719 64.785156 Z M 43.292969 67.398438 L 37.59375 73.425781 C 36.023438 70.417969 34.679688 67.300781 33.570312 64.09375 L 35.710938 59.816406 Z M 55.984375 59.207031 L 58.429688 64.09375 C 57.320312 67.300781 55.976562 70.421875 54.40625 73.425781 L 48.304688 67.328125 Z M 40.609375 49.054688 C 40.609375 48.0625 41.414062 47.257812 42.40625 47.257812 L 46 47.257812 C 46.992188 47.257812 47.796875 48.0625 47.796875 49.054688 C 47.796875 50.046875 46.992188 50.851562 46 50.851562 L 42.40625 50.851562 C 41.414062 50.851562 40.609375 50.046875 40.609375 49.054688 Z M 8.335938 88.40625 C 9.050781 79.503906 14.972656 71.414062 22.945312 68.753906 L 30.511719 66.234375 C 31.898438 70.070312 33.609375 73.78125 35.625 77.328125 L 35.632812 77.347656 L 35.636719 77.347656 C 37.117188 79.949219 38.757812 82.457031 40.554688 84.859375 L 42.765625 88.40625 Z M 46 86.804688 L 43.5625 82.890625 C 43.535156 82.847656 43.507812 82.804688 43.476562 82.765625 C 42.019531 80.820312 40.667969 78.800781 39.425781 76.714844 L 45.835938 69.9375 L 52.585938 76.691406 C 51.34375 78.785156 49.984375 80.8125 48.523438 82.765625 C 48.4375 82.882812 48.5625 82.695312 46 86.804688 Z M 49.234375 88.40625 L 51.445312 84.859375 C 53.253906 82.441406 54.910156 79.910156 56.398438 77.289062 C 56.410156 77.269531 56.417969 77.253906 56.425781 77.238281 L 56.429688 77.234375 C 58.421875 73.714844 60.113281 70.035156 61.488281 66.234375 L 69.054688 68.753906 C 77.027344 71.414062 82.949219 79.503906 83.664062 88.40625 Z M 49.234375 88.40625 "/>
<path style=" stroke:none;fill-rule:nonzero;fill:rgb(0.392157%,15.686275%,32.941176%);fill-opacity:1;" d="M 78.261719 81.132812 C 77.0625 78.730469 75.300781 76.59375 73.175781 74.960938 C 72.390625 74.355469 71.261719 74.5 70.65625 75.289062 C 70.050781 76.074219 70.199219 77.203125 70.984375 77.808594 C 72.683594 79.113281 74.085938 80.820312 75.046875 82.742188 C 75.492188 83.628906 76.570312 83.988281 77.457031 83.546875 C 78.34375 83.101562 78.707031 82.023438 78.261719 81.132812 Z M 78.261719 81.132812 "/>
</g>
</svg>
