<?xml version="1.0" encoding="UTF-8"?>
<svg xmlns="http://www.w3.org/2000/svg" xmlns:xlink="http://www.w3.org/1999/xlink" width="92px" height="px" viewBox="0 0 92 92" version="1.1">
<g id="surface1">
<path style=" stroke:none;fill-rule:nonzero;fill:rgb(0.392157%,15.686275%,32.941176%);fill-opacity:1;" d="M 89.53125 19.578125 C 89.53125 18.410156 88.828125 17.359375 87.746094 16.917969 L 47.09375 0.214844 C 46.394531 -0.0703125 45.605469 -0.0703125 44.90625 0.214844 L 4.253906 16.917969 C 3.171875 17.359375 2.46875 18.410156 2.46875 19.578125 L 2.46875 72.421875 C 2.46875 73.589844 3.171875 74.640625 4.253906 75.082031 L 44.90625 91.785156 C 45.605469 92.070312 46.390625 92.070312 47.089844 91.785156 C 47.125 91.773438 45.585938 92.402344 87.746094 75.082031 C 88.828125 74.640625 89.53125 73.589844 89.53125 72.421875 Z M 46 33.410156 L 31.019531 27.257812 L 63.394531 13.136719 L 79.375 19.699219 Z M 8.222656 24.117188 L 21.148438 29.425781 L 21.148438 44.402344 C 21.148438 45.992188 22.4375 47.28125 24.027344 47.28125 C 25.617188 47.28125 26.90625 45.992188 26.90625 44.402344 L 26.90625 31.789062 L 43.121094 38.453125 L 43.121094 84.828125 L 8.222656 70.492188 Z M 46 5.988281 L 55.976562 10.089844 L 23.605469 24.210938 L 12.625 19.699219 Z M 48.878906 38.453125 L 83.777344 24.117188 L 83.777344 70.492188 L 48.878906 84.828125 Z M 48.878906 38.453125 "/>
</g>
</svg>
