<?xml version="1.0" encoding="UTF-8"?>
<svg xmlns="http://www.w3.org/2000/svg" xmlns:xlink="http://www.w3.org/1999/xlink" width="92px" height="px" viewBox="0 0 92 92" version="1.1">
<g id="surface1">
<path style=" stroke:none;fill-rule:nonzero;fill:rgb(0.392157%,15.686275%,32.941176%);fill-opacity:1;" d="M 82.371094 68.402344 C 80.777344 67.21875 78.527344 67.550781 77.339844 69.140625 C 76.6875 70.023438 75.996094 70.875 75.269531 71.695312 C 73.953125 73.183594 74.09375 75.453125 75.582031 76.769531 C 76.238281 77.351562 77.082031 77.671875 77.960938 77.667969 C 78.953125 77.667969 79.945312 77.257812 80.652344 76.457031 C 81.515625 75.484375 82.332031 74.472656 83.109375 73.433594 C 84.292969 71.839844 83.960938 69.589844 82.371094 68.402344 Z M 88.378906 51.550781 C 86.441406 51.128906 84.527344 52.359375 84.105469 54.296875 C 83.871094 55.367188 83.59375 56.425781 83.269531 57.472656 C 82.683594 59.371094 83.746094 61.382812 85.640625 61.96875 C 85.996094 62.078125 86.351562 62.128906 86.703125 62.128906 C 88.238281 62.128906 89.660156 61.136719 90.136719 59.59375 C 90.519531 58.351562 90.851562 57.097656 91.128906 55.824219 C 91.550781 53.886719 90.320312 51.972656 88.378906 51.550781 Z M 65.070312 79.914062 C 64.113281 80.449219 63.136719 80.941406 62.136719 81.390625 C 60.328125 82.210938 59.523438 84.339844 60.339844 86.148438 C 60.941406 87.476562 62.246094 88.261719 63.617188 88.261719 C 64.113281 88.261719 64.613281 88.160156 65.09375 87.941406 C 66.277344 87.40625 67.441406 86.820312 68.574219 86.1875 C 70.308594 85.222656 70.929688 83.03125 69.960938 81.300781 C 68.996094 79.566406 66.804688 78.945312 65.070312 79.914062 Z M 42.40625 17.25 L 42.40625 44.511719 L 29.226562 57.6875 C 27.824219 59.09375 27.824219 61.367188 29.226562 62.773438 C 29.902344 63.445312 30.816406 63.824219 31.769531 63.824219 C 32.722656 63.824219 33.636719 63.445312 34.3125 62.773438 L 48.542969 48.542969 C 49.214844 47.867188 49.59375 46.953125 49.59375 46 L 49.59375 17.25 C 49.59375 15.265625 47.984375 13.65625 46 13.65625 C 44.015625 13.65625 42.40625 15.265625 42.40625 17.25 Z M 42.40625 17.25 "/>
<path style=" stroke:none;fill-rule:nonzero;fill:rgb(0.392157%,15.686275%,32.941176%);fill-opacity:1;" d="M 88.40625 7.726562 C 86.421875 7.726562 84.8125 9.335938 84.8125 11.320312 L 84.8125 21.300781 C 76.449219 8.179688 61.839844 0 46 0 C 33.714844 0 22.160156 4.785156 13.472656 13.472656 C 4.785156 22.160156 0 33.714844 0 46 C 0 58.285156 4.785156 69.839844 13.472656 78.527344 C 22.160156 87.214844 33.714844 92 46 92 C 46.03125 92 46.058594 91.996094 46.089844 91.996094 C 46.121094 91.996094 46.148438 92 46.179688 92 C 47.476562 92 48.78125 91.945312 50.066406 91.839844 C 52.046875 91.671875 53.515625 89.933594 53.347656 87.957031 C 53.183594 85.980469 51.449219 84.507812 49.46875 84.675781 C 48.382812 84.765625 47.277344 84.8125 46.179688 84.8125 C 46.148438 84.8125 46.121094 84.816406 46.089844 84.816406 C 46.058594 84.816406 46.03125 84.8125 46 84.8125 C 24.597656 84.8125 7.1875 67.402344 7.1875 46 C 7.1875 24.597656 24.597656 7.1875 46 7.1875 C 59.792969 7.1875 72.476562 14.539062 79.410156 26.234375 L 69.527344 26.234375 C 67.542969 26.234375 65.933594 27.84375 65.933594 29.828125 C 65.933594 31.8125 67.542969 33.421875 69.527344 33.421875 L 80.5 33.421875 C 82.609375 33.425781 84.679688 32.84375 86.480469 31.742188 C 86.589844 31.679688 86.699219 31.609375 86.800781 31.535156 C 89.929688 29.476562 92 25.9375 92 21.921875 L 92 11.320312 C 92 9.335938 90.390625 7.726562 88.40625 7.726562 Z M 88.40625 7.726562 "/>
</g>
</svg>
