<?xml version="1.0" encoding="UTF-8"?>
<svg xmlns="http://www.w3.org/2000/svg" xmlns:xlink="http://www.w3.org/1999/xlink" width="92px" height="px" viewBox="0 0 92 92" version="1.1">
<g id="surface1">
<path style="fill:none;stroke-width:15;stroke-linecap:round;stroke-linejoin:round;stroke:rgb(0.392157%,15.686275%,32.941176%);stroke-opacity:1;stroke-miterlimit:10;" d="M 0.0000896487 -0.00221883 L 0.0000896487 43.041388 C 0.0000896487 65.128411 17.913187 83.041508 40.000209 83.041508 L 254.000849 83.041508 C 276.087871 83.041508 294.000968 65.128411 294.000968 43.041388 L 294.000968 3.54127 " transform="matrix(0.179687,0,0,-0.179687,5.390609,16.269133)"/>
<path style="fill:none;stroke-width:15;stroke-linecap:round;stroke-linejoin:round;stroke:rgb(0.392157%,15.686275%,32.941176%);stroke-opacity:1;stroke-miterlimit:10;" d="M 0.000968206 0.000552833 L 0.000968206 -137.499858 C 0.000968206 -159.586881 -17.912129 -177.499978 -39.999151 -177.499978 L -253.999791 -177.499978 C -276.086813 -177.499978 -293.99991 -159.586881 -293.99991 -137.499858 L -293.99991 201.001153 " transform="matrix(0.179687,0,0,-0.179687,58.218576,58.757912)"/>
<path style="fill:none;stroke-width:15;stroke-linecap:round;stroke-linejoin:round;stroke:rgb(0.392157%,15.686275%,32.941176%);stroke-opacity:1;stroke-miterlimit:10;" d="M 0.00089051 0.00673378 L 0.00089051 -23.449858 C 0.00089051 -31.189012 -6.259998 -37.4499 -13.999151 -37.4499 L -227.999791 -37.4499 C -235.738944 -37.4499 -241.999833 -31.189012 -241.999833 -23.449858 L -241.999833 393.551388 C -241.999833 401.290542 -235.738944 407.55143 -227.999791 407.55143 L -187.890975 407.55143 C -185.564881 407.55143 -183.499658 406.073165 -182.738786 403.877506 L -177.456162 388.507895 C -176.69529 386.312236 -174.630066 384.833971 -172.282233 384.833971 L -69.716709 384.833971 C -67.390615 384.833971 -65.303652 386.312236 -64.542781 388.507895 L -59.260156 403.877506 C -58.499284 406.073165 -56.434061 407.55143 -54.107967 407.55143 L -13.999151 407.55143 C -6.259998 407.55143 0.00089051 401.290542 0.00089051 393.551388 L 0.00089051 354.05127 " transform="matrix(0.179687,0,0,-0.179687,53.546715,79.25121)"/>
<path style="fill:none;stroke-width:15;stroke-linecap:round;stroke-linejoin:round;stroke:rgb(0.392157%,15.686275%,32.941176%);stroke-opacity:1;stroke-miterlimit:10;" d="M 0.00089051 0.000552833 L 0.00089051 -79.064901 " transform="matrix(0.179687,0,0,-0.179687,53.546715,58.757912)"/>
<path style="fill:none;stroke-width:15;stroke-linecap:round;stroke-linejoin:round;stroke:rgb(0.392157%,15.686275%,32.941176%);stroke-opacity:1;stroke-miterlimit:10;" d="M 0.00064547 0.000292852 L -77.999588 0.000292852 C -89.608318 0.000292852 -98.99965 9.391625 -98.99965 21.000356 C -98.99965 32.587347 -89.608318 42.000418 -77.999588 42.000418 L 0.00064547 42.000418 C 11.587637 42.000418 21.000708 32.587347 21.000708 21.000356 C 21.000708 9.391625 11.587637 0.000292852 0.00064547 0.000292852 Z M 0.00064547 0.000292852 " transform="matrix(0.179687,0,0,-0.179687,38.812384,74.390678)"/>
<path style="fill:none;stroke-width:15;stroke-linecap:round;stroke-linejoin:round;stroke:rgb(0.392157%,15.686275%,32.941176%);stroke-opacity:1;stroke-miterlimit:10;" d="M 0.00591979 0.00127002 L 38.179947 0.00127002 C 49.027805 0.00127002 57.81044 -8.781365 57.81044 -19.629223 L 57.81044 -220.368954 C 57.81044 -231.216812 49.027805 -239.999447 38.179947 -239.999447 L -306.560214 -239.999447 C -317.408072 -239.999447 -326.190707 -231.216812 -326.190707 -220.368954 L -326.190707 -19.629223 C -326.190707 -8.781365 -317.408072 0.00127002 -306.560214 0.00127002 L -35.255055 0.00127002 " transform="matrix(0.179687,0,0,-0.179687,76.221593,15.633041)"/>
<path style="fill:none;stroke-width:15;stroke-linecap:round;stroke-linejoin:round;stroke:rgb(0.392157%,15.686275%,32.941176%);stroke-opacity:1;stroke-miterlimit:10;" d="M -0.00112847 0.00752478 L 21.716328 57.029434 C 22.172851 58.116394 23.694595 58.116394 24.151118 57.029434 L 45.672921 0.00752478 " transform="matrix(0.179687,0,0,-0.179687,62.863484,52.602915)"/>
<path style="fill:none;stroke-width:15;stroke-linecap:round;stroke-linejoin:round;stroke:rgb(0.392157%,15.686275%,32.941176%);stroke-opacity:1;stroke-miterlimit:10;" d="M 0.0085005 0.00121937 L 32.225988 0.00121937 " transform="matrix(0.179687,0,0,-0.179687,64.080504,50.051)"/>
<path style="fill:none;stroke-width:15;stroke-linecap:round;stroke-linejoin:round;stroke:rgb(0.392157%,15.686275%,32.941176%);stroke-opacity:1;stroke-miterlimit:10;" d="M 0.000861521 -0.00521546 L 18.479178 -28.287909 L 36.805319 -0.135651 " transform="matrix(0.179687,0,0,-0.179687,72.718595,42.21)"/>
<path style="fill:none;stroke-width:15;stroke-linecap:round;stroke-linejoin:round;stroke:rgb(0.392157%,15.686275%,32.941176%);stroke-opacity:1;stroke-miterlimit:10;" d="M -0.0107792 0.00752478 L 0.0761776 29.551091 " transform="matrix(0.179687,0,0,-0.179687,76.025374,52.602915)"/>
<path style="fill:none;stroke-width:15;stroke-linecap:round;stroke-linejoin:round;stroke:rgb(0.392157%,15.686275%,32.941176%);stroke-opacity:1;stroke-miterlimit:10;" d="M -0.00803639 -0.00698155 L -0.00803639 -48.811475 " transform="matrix(0.179687,0,0,-0.179687,55.329569,43.830777)"/>
<path style="fill:none;stroke-width:15;stroke-linecap:round;stroke-linejoin:round;stroke:rgb(0.392157%,15.686275%,32.941176%);stroke-opacity:1;stroke-miterlimit:10;" d="M 0.00693108 -0.00835121 C 0.00693108 -9.008378 -7.623527 -16.312748 -16.645293 -16.312748 C -21.101828 -16.312748 -32.623601 -16.399705 -32.623601 -16.399705 C -32.623601 -16.399705 -32.710558 -4.551843 -32.710558 -0.00835121 C -32.710558 3.73079 -32.754036 16.317785 -32.754036 16.317785 L -16.645293 16.317785 C -7.623527 16.317785 0.00693108 9.013415 0.00693108 -0.00835121 Z M 0.00693108 -0.00835121 " transform="matrix(0.179687,0,0,-0.179687,61.213598,45.143031)"/>
<path style="fill:none;stroke-width:15;stroke-linecap:round;stroke-linejoin:round;stroke:rgb(0.392157%,15.686275%,32.941176%);stroke-opacity:1;stroke-miterlimit:10;" d="M 0.000630529 0.000998088 L -61.999555 0.000998088 C -65.303912 0.000998088 -67.999573 2.696658 -67.999573 6.001016 L -67.999573 46.001136 C -67.999573 49.305493 -65.303912 52.001153 -61.999555 52.001153 L 0.000630529 52.001153 C 3.304988 52.001153 6.000648 49.305493 6.000648 46.001136 L 6.000648 6.001016 C 6.000648 2.696658 3.304988 0.000998088 0.000630529 0.000998088 Z M 0.000630529 0.000998088 " transform="matrix(0.179687,0,0,-0.179687,37.913949,31.984554)"/>
<path style="fill:none;stroke-width:15;stroke-linecap:round;stroke-linejoin:round;stroke:rgb(0.392157%,15.686275%,32.941176%);stroke-opacity:1;stroke-miterlimit:10;" d="M 0.000555822 0.000576963 L -87.999707 0.000576963 L -87.999707 52.000732 L 0.000555822 52.000732 C 14.348425 52.000732 26.000634 40.348524 26.000634 26.000655 C 26.000634 11.631047 14.348425 0.000576963 0.000555822 0.000576963 Z M 0.000555822 0.000576963 " transform="matrix(0.179687,0,0,-0.179687,33.421775,52.078229)"/>
<path style="fill:none;stroke-width:15;stroke-linecap:round;stroke-linejoin:round;stroke:rgb(0.392157%,15.686275%,32.941176%);stroke-opacity:1;stroke-miterlimit:10;" d="M 0.00988442 0.0058821 L 0.00988442 -11.994154 " transform="matrix(0.179687,0,0,-0.179687,50.56463,25.887776)"/>
<path style="fill:none;stroke-width:15;stroke-linecap:round;stroke-linejoin:round;stroke:rgb(0.392157%,15.686275%,32.941176%);stroke-opacity:1;stroke-miterlimit:10;" d="M 0.00390623 0.0058821 L 0.00390623 -11.994154 " transform="matrix(0.179687,0,0,-0.179687,72.792267,25.887776)"/>
<path style="fill:none;stroke-width:15;stroke-linecap:round;stroke-linejoin:round;stroke:rgb(0.392157%,15.686275%,32.941176%);stroke-opacity:1;stroke-miterlimit:10;" d="M 0.00711657 0.0058821 L 0.00711657 -11.994154 " transform="matrix(0.179687,0,0,-0.179687,77.596377,25.887776)"/>
<path style="fill:none;stroke-width:15;stroke-linecap:round;stroke-linejoin:round;stroke:rgb(0.392157%,15.686275%,32.941176%);stroke-opacity:1;stroke-miterlimit:10;" d="M -0.00465179 0.0058821 L -0.00465179 -11.994154 " transform="matrix(0.179687,0,0,-0.179687,57.539898,25.887776)"/>
<path style="fill:none;stroke-width:15;stroke-linecap:round;stroke-linejoin:round;stroke:rgb(0.392157%,15.686275%,32.941176%);stroke-opacity:1;stroke-miterlimit:10;" d="M 0.006259 0.0058821 L 0.006259 -11.994154 " transform="matrix(0.179687,0,0,-0.179687,62.631688,25.887776)"/>
</g>
</svg>
