<?xml version="1.0" encoding="UTF-8"?>
<svg xmlns="http://www.w3.org/2000/svg" xmlns:xlink="http://www.w3.org/1999/xlink" width="92px" height="px" viewBox="0 0 92 92" version="1.1">
<g id="surface1">
<path style=" stroke:none;fill-rule:evenodd;fill:rgb(0.392157%,15.686275%,32.941176%);fill-opacity:1;" d="M 65.585938 19.230469 C 73.5625 21.082031 76.613281 25.746094 80.4375 32.164062 L 65.585938 32.164062 Z M 18.972656 32.703125 C 20.53125 32.703125 21.667969 33.457031 21.667969 35.21875 C 21.667969 36.703125 20.464844 37.910156 18.980469 37.914062 L 2.695312 37.914062 C 1.207031 37.914062 0 39.121094 0 40.609375 C 0 42.097656 1.207031 43.304688 2.695312 43.304688 L 26.953125 43.304688 C 28.457031 43.304688 29.660156 44.511719 29.660156 46 C 29.660156 47.488281 28.453125 48.695312 26.964844 48.695312 L 2.695312 48.695312 C 1.207031 48.695312 0 49.902344 0 51.390625 C 0 52.878906 1.207031 54.085938 2.695312 54.085938 L 8.625 54.085938 L 8.625 62.171875 C 8.625 63.660156 9.832031 64.867188 11.320312 64.867188 L 16.738281 64.867188 C 17.703125 69.625 21.90625 73.132812 26.863281 73.132812 C 31.820312 73.132812 36.023438 69.625 36.988281 64.867188 L 64.355469 64.867188 C 65.320312 69.625 69.523438 73.132812 74.480469 73.132812 C 79.4375 73.132812 83.640625 69.625 84.605469 64.867188 L 89.304688 64.867188 C 90.792969 64.867188 92 63.660156 92 62.171875 L 92 46 C 92 38.089844 83.660156 37.566406 83.652344 37.554688 L 62.890625 37.554688 C 61.402344 37.554688 60.195312 36.347656 60.195312 34.859375 L 60.195312 18.6875 L 11.320312 18.6875 C 9.832031 18.6875 8.625 19.894531 8.625 21.382812 L 8.625 27.3125 L 5.390625 27.3125 C 3.902344 27.3125 2.695312 28.519531 2.695312 30.007812 C 2.695312 31.496094 3.902344 32.703125 5.390625 32.703125 Z M 77.972656 59.308594 C 79.902344 61.234375 79.902344 64.367188 77.972656 66.296875 C 74.871094 69.398438 69.539062 67.191406 69.539062 62.800781 C 69.539062 58.410156 74.871094 56.203125 77.972656 59.308594 Z M 30.355469 59.308594 C 32.285156 61.234375 32.285156 64.367188 30.355469 66.296875 C 27.253906 69.398438 21.921875 67.191406 21.921875 62.800781 C 21.921875 58.410156 27.253906 56.203125 30.355469 59.308594 Z M 30.355469 59.308594 "/>
</g>
</svg>
